<svg width="98" height="99" fill="none" xmlns="http://www.w3.org/2000/svg"><circle cx="74.48" cy="25.591" r="14.7" fill="#00C26D"/><path fill-rule="evenodd" clip-rule="evenodd" d="M22.059 68.883c-.848 0-1.537.688-1.537 1.536v16.638a1.537 1.537 0 0 0 3.073 0V70.42c0-.848-.688-1.536-1.536-1.536zM32.093 42.274a5.346 5.346 0 0 1 5.34 5.34 5.346 5.346 0 0 1-5.34 5.341 5.346 5.346 0 0 1-5.34-5.34 5.346 5.346 0 0 1 5.34-5.34zm0 13.754c4.64 0 8.413-3.774 8.413-8.413 0-4.64-3.774-8.414-8.413-8.414-4.64 0-8.413 3.775-8.413 8.414 0 4.639 3.773 8.413 8.413 8.413z" fill="#293349"/><path fill-rule="evenodd" clip-rule="evenodd" d="M58.299 73.246h-6.85v-8.111a6.83 6.83 0 0 0-6.822-6.822h-2.364a1.69 1.69 0 0 0-.137-.006h-5.178c-.522 0-1.009.265-1.291.704l-3.565 5.53-3.564-5.53a1.538 1.538 0 0 0-1.292-.704h-.003l-7.676.006a6.83 6.83 0 0 0-6.822 6.822v21.921a1.537 1.537 0 0 0 3.073 0V65.136a3.753 3.753 0 0 1 3.75-3.75l6.84-.004L30.8 68.21c.567.878 2.018.876 2.584 0l4.401-6.83h4.204c.046.004.091.006.137.006h2.5a3.753 3.753 0 0 1 3.75 3.749v9.647c0 .85.687 1.537 1.536 1.537H58.3c1.599 0 3.218.987 3.218 2.872 0 1.93-1.733 2.615-3.218 2.615H43.662V70.419a1.536 1.536 0 1 0-3.073 0v16.638a1.537 1.537 0 0 0 3.073 0v-2.178H58.3c3.645 0 6.29-2.392 6.29-5.688 0-3.389-2.703-5.945-6.29-5.945zM70.524 66.404H59.84a1.535 1.535 0 1 0 0 3.073h10.683a1.536 1.536 0 1 0 0-3.073zM72.383 30.412l-7.2 3.695-7.2-3.695a1.536 1.536 0 0 0-2.188 1.757l5.606 21.386a1.539 1.539 0 0 0 1.877 1.096 1.537 1.537 0 0 0 1.097-1.875l-4.735-18.06 4.842 2.486c.038.02.077.017.115.032.1.042.2.067.305.086.095.019.186.033.28.033.096.002.187-.014.284-.033.105-.02.203-.044.302-.085.038-.016.08-.013.116-.033l4.842-2.485-4.735 18.059a1.537 1.537 0 0 0 2.974.779l5.606-21.386a1.535 1.535 0 0 0-2.188-1.756z" fill="#293349"/><path fill-rule="evenodd" clip-rule="evenodd" d="m79.596 43.694-.028-.018-.781 1.172c-.105.153-.213.316-.327.489-.01.013-.019.028-.028.042-.54.802-1.215 1.583-1.928 2.409-2.257 2.613-5.022 5.816-5.422 11.947H59.284c-.398-6.13-3.165-9.334-5.42-11.947-.715-.826-1.39-1.607-1.93-2.41l-.028-.041c-.114-.173-.223-.336-.327-.49l-.781-1.17-.027.017a16.682 16.682 0 0 1-2.45-8.755c0-9.297 7.564-16.862 16.863-16.862 9.297 0 16.861 7.565 16.861 16.863 0 3.13-.842 6.123-2.45 8.754zm-14.412-28.69c-10.993 0-19.936 8.943-19.936 19.936 0 4.43 1.425 8.626 4.124 12.136.646.961 1.384 1.817 2.166 2.72 2.322 2.69 4.722 5.47 4.722 11.476 0 .849.688 1.536 1.537 1.536H72.57c.848 0 1.536-.687 1.536-1.536 0-6.006 2.4-8.786 4.724-11.476.78-.903 1.518-1.759 2.164-2.72a19.74 19.74 0 0 0 4.124-12.136c0-10.993-8.943-19.936-19.934-19.936z" fill="#293349"/></svg>