<svg width="98" height="99" fill="none" xmlns="http://www.w3.org/2000/svg"><circle cx="65.66" cy="41.27" r="14.7" fill="#00C26D"/><path fill-rule="evenodd" clip-rule="evenodd" d="M70.242 80.257H20.678V16.868h48.045v7.071a1.52 1.52 0 0 0 3.038 0v-8.59c0-.84-.68-1.519-1.519-1.519H19.159c-.839 0-1.52.68-1.52 1.52v66.426c0 .838.681 1.519 1.52 1.519h51.083a1.519 1.519 0 1 0 0-3.038z" fill="#293349"/><path fill-rule="evenodd" clip-rule="evenodd" d="M57.739 23.939c0-.839-.68-1.52-1.52-1.52H26.232a1.52 1.52 0 0 0-1.52 1.52v49.245c0 .838.681 1.519 1.52 1.519H44.7a1.52 1.52 0 0 0 0-3.038H27.75V25.458h28.47c.84 0 1.519-.68 1.519-1.52z" fill="#293349"/><path fill-rule="evenodd" clip-rule="evenodd" d="m69.926 69.492-4.988-5.29c-.574-.609-1.637-.609-2.21 0l-4.99 5.29V54.566c1.846.9 3.908 1.42 6.095 1.42s4.25-.52 6.093-1.42v14.926zM52.922 42.038c0-6.016 4.895-10.911 10.911-10.911 6.015 0 10.91 4.895 10.91 10.911 0 6.017-4.895 10.91-10.91 10.91-6.016 0-10.911-4.893-10.911-10.91zm24.86 0c0-7.69-6.258-13.95-13.949-13.95-7.69 0-13.95 6.26-13.95 13.95 0 4.199 1.873 7.96 4.818 10.52v20.76a1.52 1.52 0 0 0 2.623 1.04l6.51-6.9 6.507 6.9a1.513 1.513 0 0 0 1.664.371c.58-.23.96-.788.96-1.412V52.558c2.944-2.56 4.816-6.321 4.816-10.52z" fill="#293349"/><path fill-rule="evenodd" clip-rule="evenodd" d="M63.833 39.255a2.787 2.787 0 0 1 2.784 2.784 2.789 2.789 0 0 1-2.784 2.785 2.789 2.789 0 0 1-2.785-2.785 2.787 2.787 0 0 1 2.785-2.784zm0 8.607a5.83 5.83 0 0 0 5.822-5.823 5.83 5.83 0 0 0-5.822-5.822 5.828 5.828 0 0 0-5.823 5.822 5.83 5.83 0 0 0 5.823 5.823zM44.7 38.254H33.974a1.52 1.52 0 0 0 0 3.038h10.728a1.519 1.519 0 1 0 0-3.038zM46.22 47.689a1.52 1.52 0 0 0-1.52-1.52H33.974a1.52 1.52 0 0 0 0 3.039h10.728a1.52 1.52 0 0 0 1.519-1.52zM33.973 54.086a1.519 1.519 0 1 0 0 3.038h7.252a1.519 1.519 0 1 0 0-3.038h-7.252z" fill="#293349"/></svg>