<svg width="98" height="99" fill="none" xmlns="http://www.w3.org/2000/svg"><circle cx="74.48" cy="25.591" r="14.7" fill="#00C26D"/><path fill-rule="evenodd" clip-rule="evenodd" d="M47.51 41.552c-.826.04-1.317.01-1.582-.021-.945-.112-3.264-1.462-5.865-3.825a1.573 1.573 0 0 0-2.606.9l-1.298 7.438a4.417 4.417 0 0 0-.03.125 1.582 1.582 0 0 0 1.014 1.822c4.354 1.546 7.583 3.242 9.337 4.906 3.91 3.705 5.837 8.947 5.915 9.164a1.736 1.736 0 0 1-1.542 2.32c-.762.026-1.446-.424-1.674-1.055-.253-.895-1.686-5.489-5.231-8.045-5.415-3.905-11.505-5.135-13.293-5.427a4.745 4.745 0 0 1-3.084-1.965 4.764 4.764 0 0 1-.794-3.577l1.596-9.174a1.583 1.583 0 0 0-.365-1.311c-.3-.345-.731-.54-1.184-.54h-.06c-1.963.074-4.774 1.885-5.925 3.148-2.633 2.887-3.125 8.027-3.19 8.957-.084.656-.308 1.147-.63 1.38-.341.246-.806.218-1.137.153-1.074-.215-1.013-1.633-.923-2.355.313-3.342 1.48-7.824 3.809-10.38 3.486-3.83 11.557-4.92 13.526-5.002.504-.02 1.626-.02 1.952.036a4.78 4.78 0 0 1 2.82 1.625c.071.085.153.163.24.23.038.03.078.057.113.094 2.235 2.418 6.437 6.498 8.193 7.158a1.6 1.6 0 0 0 .422.095c1.909.154 7.06-.737 8.882-1.095.317-.06.79-.035 1.172.23.302.21.487.535.563.994.055.33.201 1.204-1.308 1.57l-.353.088c-1.345.334-4.916 1.22-7.48 1.34zM33.173 65.184c-.983 4.134-2.9 7.99-2.921 8.031a1.708 1.708 0 0 1-.96.857c-.448.16-.929.133-1.353-.08a1.731 1.731 0 0 1-.77-2.33c.073-.15 1.787-3.671 2.647-7.282.519-2.181.864-8.237.994-11.29.793.152 1.982.422 3.398.871-.057 1.8-.302 8.14-1.035 11.223zm33.697-43.772 3.18 4.575H56.841V15.03h13.208l-3.18 4.574a1.587 1.587 0 0 0 0 1.808zM56.84 44.639V42.95c2.156-.821 3.29-2.677 2.915-4.92-.22-1.305-.868-2.367-1.876-3.067a4.513 4.513 0 0 0-1.04-.518v-5.3h16.226c.587 0 1.124-.326 1.396-.848a1.583 1.583 0 0 0-.104-1.634l-4.28-6.155 4.28-6.155a1.586 1.586 0 0 0 .104-1.635 1.574 1.574 0 0 0-1.396-.848H55.267c-.87 0-1.574.707-1.574 1.58v20.898c-2.66.496-5.851.931-7.14.94-.964-.564-3.922-3.123-6.827-6.265a3.656 3.656 0 0 0-.364-.338 7.928 7.928 0 0 0-4.576-2.573c-.837-.147-2.605-.081-2.62-.081-.107.004-10.778.596-15.721 6.028-3.593 3.94-4.445 10.345-4.621 12.232-.382 2.986.97 5.237 3.442 5.731 1.332.27 2.606.026 3.591-.685.735-.53 1.665-1.577 1.925-3.648.13-1.819.778-5.365 2.38-7.12.375-.414.996-.877 1.638-1.265l-1.124 6.464a7.917 7.917 0 0 0 1.32 5.937A7.826 7.826 0 0 0 27.7 52.11c-.089 2.529-.451 9.452-.946 11.536-.778 3.272-2.343 6.484-2.406 6.613a4.877 4.877 0 0 0-.26 3.735 4.853 4.853 0 0 0 2.444 2.825c.254.126.517.204.78.284l-4.622 5.689c-.55.676-.45 1.67.224 2.223a1.568 1.568 0 0 0 2.215-.226L42.39 63.547a1.585 1.585 0 0 0-.225-2.223 1.569 1.569 0 0 0-2.214.227l-3.794 4.667c.026-.102.052-.2.076-.301.698-2.933.98-8.149 1.084-10.784 1.56.688 3.21 1.57 4.794 2.713 2.75 1.985 3.914 5.898 4.038 6.338a4.847 4.847 0 0 0 4.849 3.353 4.87 4.87 0 0 0 1.43-.286c2.527-.916 3.841-3.724 2.927-6.264-.226-.627-2.342-6.247-6.713-10.387-1.914-1.814-5-3.535-9.186-5.123l.634-3.636c1.654 1.272 3.763 2.624 5.468 2.828.565.066 1.252.08 2.101.04 1.934-.09 4.27-.546 6.034-.942v.872l-2.764 3.4a1.587 1.587 0 0 0 .226 2.222c.673.55 1.666.449 2.215-.226l1.897-2.334 30.14 37.088a1.568 1.568 0 0 0 2.214.226 1.587 1.587 0 0 0 .226-2.223L56.84 44.639z" fill="#293349"/><path fill-rule="evenodd" clip-rule="evenodd" d="M89.798 65.166 74.469 46.748a1.618 1.618 0 0 0-1.243-.578c-.482 0-.937.212-1.241.578L67 52.735a1.55 1.55 0 0 0 .229 2.211 1.628 1.628 0 0 0 2.256-.225l3.74-4.493 14.087 16.924a1.624 1.624 0 0 0 2.256.224 1.548 1.548 0 0 0 .229-2.21zM35.619 15.007l.153-.003a3.239 3.239 0 0 1 3.23 3.083c.04.864-.259 1.691-.842 2.332a3.217 3.217 0 0 1-2.239 1.054 3.22 3.22 0 0 1-2.33-.84 3.24 3.24 0 0 1 2.029-5.626zm.143 9.603a6.324 6.324 0 0 0 4.717-2.082 6.327 6.327 0 0 0 1.653-4.587c-.164-3.507-3.157-6.222-6.659-6.064-3.509.164-6.23 3.152-6.066 6.66a6.33 6.33 0 0 0 2.07 4.411 6.324 6.324 0 0 0 4.285 1.662z" fill="#293349"/></svg>