<svg width="98" height="99" fill="none" xmlns="http://www.w3.org/2000/svg"><circle cx="63.7" cy="36.37" fill="#00C26D" r="14.7"/><path fill-rule="evenodd" clip-rule="evenodd" d="M20.232 60.07c-.796 0-1.439.644-1.439 1.438v16.263a1.438 1.438 0 1 0 2.878 0V61.508a1.44 1.44 0 0 0-1.44-1.439zM28.03 39.878a3.911 3.911 0 0 1 3.906 3.907 3.91 3.91 0 0 1-3.905 3.905 3.91 3.91 0 0 1-3.906-3.905 3.912 3.912 0 0 1 3.906-3.907zm0 10.69a6.791 6.791 0 0 0 6.784-6.783A6.791 6.791 0 0 0 28.031 37a6.792 6.792 0 0 0-6.784 6.785 6.792 6.792 0 0 0 6.784 6.783z" fill="#293349"/><path fill-rule="evenodd" clip-rule="evenodd" d="m79.504 51.855-5.967-.004h-.002c-.49 0-.944.248-1.209.66l-2.564 3.977-2.566-3.978a1.438 1.438 0 0 0-1.21-.66h-4.024c-.038 0-.076.003-.114.005h-1.83a5.554 5.554 0 0 0-5.547 5.546v5.924l-5.574 1.923-5.579-1.923V57.4a5.553 5.553 0 0 0-5.546-5.546h-1.829a1.889 1.889 0 0 0-.114-.004h-4.025c-.488 0-.944.248-1.209.66l-2.565 3.977-2.565-3.978a1.44 1.44 0 0 0-1.21-.66h-.001l-5.967.005a5.554 5.554 0 0 0-5.547 5.546v20.37a1.439 1.439 0 1 0 2.878 0v-20.37a2.672 2.672 0 0 1 2.67-2.668l5.184-.003 3.349 5.193c.53.822 1.889.822 2.418 0l3.35-5.195h3.125c.038.004.076.005.115.005h1.943a2.67 2.67 0 0 1 2.669 2.668v6.949c0 .18.042.35.104.512.016.044.04.081.061.123a1.435 1.435 0 0 0 .311.415c.1.091.213.166.337.227.033.016.06.037.094.05.023.009.04.026.063.034l7.015 2.42a1.43 1.43 0 0 0 .94 0l7.015-2.42c.022-.008.04-.025.061-.034.036-.013.062-.034.095-.05a1.418 1.418 0 0 0 .434-.327c.086-.095.156-.2.214-.315.02-.042.044-.079.06-.123.063-.162.104-.332.104-.511V57.4a2.672 2.672 0 0 1 2.67-2.668h1.943c.038 0 .077-.001.115-.005h3.126l3.349 5.195a1.438 1.438 0 0 0 2.417 0l3.351-5.194 5.184.004a2.672 2.672 0 0 1 2.669 2.668v20.37a1.438 1.438 0 1 0 2.878 0v-20.37a5.554 5.554 0 0 0-5.547-5.546z" fill="#293349"/><path fill-rule="evenodd" clip-rule="evenodd" d="M77.559 60.07a1.44 1.44 0 0 0-1.439 1.438v16.263a1.439 1.439 0 1 0 2.878 0V61.508a1.44 1.44 0 0 0-1.439-1.439zM61.962 60.07a1.44 1.44 0 0 0-1.439 1.438v6.94l-10.702 3.508c-.088.024-.175.038-.357.07l-.151.032-.156.013c-.084.009-.164.02-.267.02a4.54 4.54 0 0 1-.342-.028l-.172-.027-.144-.027-.195-.034-10.769-3.528v-6.939a1.44 1.44 0 0 0-2.877 0v16.263a1.438 1.438 0 1 0 2.877 0v-6.295l9.94 3.255c.174.047.343.08.542.114.083.018.165.037.274.054.095.015.186.024.322.035.177.018.356.034.531.034h.013c.202.005.373-.015.6-.037a4.11 4.11 0 0 0 .301-.035c.082-.013.163-.031.282-.056.17-.03.338-.062.577-.13l9.873-3.234v6.295a1.439 1.439 0 1 0 2.878 0V61.508c0-.794-.644-1.439-1.439-1.439zM69.76 39.878a3.911 3.911 0 0 1 3.906 3.907 3.91 3.91 0 0 1-3.906 3.905 3.91 3.91 0 0 1-3.906-3.905 3.911 3.911 0 0 1 3.906-3.907zm-6.783 3.907a6.792 6.792 0 0 0 6.783 6.783 6.791 6.791 0 0 0 6.784-6.783A6.791 6.791 0 0 0 69.76 37a6.792 6.792 0 0 0-6.783 6.785zM41.285 29.394l6.273 6.272a1.44 1.44 0 0 0 2.035 0l13.461-13.461 2.157 2.157-16.75 16.75-9.413-9.414 2.237-2.304zm6.159 14.77a1.442 1.442 0 0 0 2.034 0L68.264 25.38a1.44 1.44 0 0 0 0-2.035l-4.192-4.192a1.441 1.441 0 0 0-2.034 0L48.575 32.614l-6.287-6.287a1.404 1.404 0 0 0-1.028-.422c-.386.004-.754.16-1.021.437l-4.244 4.368a1.437 1.437 0 0 0 .015 2.02l11.434 11.434z" fill="#293349"/></svg>